solid Untitled-5367fc29
facet normal 0.0 0.0 -1.0
  outer loop
    vertex 8.564948346506972 18.60358967282089 -2.8199664825478975e-15
    vertex 8.564948346506993 13.944846860975513 -2.8199664825478975e-15
    vertex 8.258280783108603 16.274218266898206 -2.8199664825478975e-15
  endloop
endfacet
facet normal 0.0 0.0 -1.0
  outer loop
    vertex 8.564948346506993 13.944846860975513 -2.8199664825478975e-15
    vertex 8.564948346506972 18.60358967282089 -2.8199664825478975e-15
    vertex 9.46405214904865 20.77421826689821 -2.8199664825478975e-15
  endloop
endfacet
facet normal 0.0 0.0 -1.0
  outer loop
    vertex 8.564948346506993 13.944846860975513 -2.8199664825478975e-15
    vertex 9.46405214904865 20.77421826689821 -2.8199664825478975e-15
    vertex 9.464052149048673 11.774218266898199 -2.8199664825478975e-15
  endloop
endfacet
facet normal 0.0 0.0 -1.0
  outer loop
    vertex 9.464052149048673 11.774218266898199 -2.8199664825478975e-15
    vertex 9.46405214904865 20.77421826689821 -2.8199664825478975e-15
    vertex 10.894319752429677 22.63817929757714 -2.8199664825478975e-15
  endloop
endfacet
facet normal 0.0 0.0 -1.0
  outer loop
    vertex 9.464052149048673 11.774218266898199 -2.8199664825478975e-15
    vertex 10.894319752429677 22.63817929757714 -2.8199664825478975e-15
    vertex 10.894319752429677 9.910257236219275 -2.8199664825478975e-15
  endloop
endfacet
facet normal 0.0 0.0 -1.0
  outer loop
    vertex 10.894319752429677 9.910257236219275 -2.8199664825478975e-15
    vertex 10.894319752429677 22.63817929757714 -2.8199664825478975e-15
    vertex 12.758280783108605 24.068446900958165 -2.8199664825478975e-15
  endloop
endfacet
facet normal 0.0 0.0 -1.0
  outer loop
    vertex 10.894319752429677 9.910257236219275 -2.8199664825478975e-15
    vertex 12.758280783108605 24.068446900958165 -2.8199664825478975e-15
    vertex 12.758280783108605 8.479989632838254 -2.8199664825478975e-15
  endloop
endfacet
facet normal 0.0 0.0 -1.0
  outer loop
    vertex 12.758280783108605 8.479989632838254 -2.8199664825478975e-15
    vertex 12.758280783108605 24.068446900958165 -2.8199664825478975e-15
    vertex 14.928909377185903 24.967550703499857 -2.8199664825478975e-15
  endloop
endfacet
facet normal 0.0 0.0 -1.0
  outer loop
    vertex 12.758280783108605 8.479989632838254 -2.8199664825478975e-15
    vertex 14.928909377185903 24.967550703499857 -2.8199664825478975e-15
    vertex 14.928909377185926 7.580885830296587 -2.8199664825478975e-15
  endloop
endfacet
facet normal 0.0 0.0 -1.0
  outer loop
    vertex 14.928909377185926 7.580885830296587 -2.8199664825478975e-15
    vertex 14.928909377185903 24.967550703499857 -2.8199664825478975e-15
    vertex 17.258280783108596 25.274218266898224 -2.8199664825478975e-15
  endloop
endfacet
facet normal 0.0 0.0 -1.0
  outer loop
    vertex 14.928909377185926 7.580885830296587 -2.8199664825478975e-15
    vertex 17.258280783108596 25.274218266898224 -2.8199664825478975e-15
    vertex 17.258280783108596 7.274218266898207 -2.8199664825478975e-15
  endloop
endfacet
facet normal 0.0 0.0 -1.0
  outer loop
    vertex 17.258280783108596 7.274218266898207 -2.8199664825478975e-15
    vertex 17.258280783108596 25.274218266898224 -2.8199664825478975e-15
    vertex 19.587652189031292 24.967550703499857 -2.8199664825478975e-15
  endloop
endfacet
facet normal 0.0 0.0 -1.0
  outer loop
    vertex 17.258280783108596 7.274218266898207 -2.8199664825478975e-15
    vertex 19.587652189031292 24.967550703499857 -2.8199664825478975e-15
    vertex 19.587652189031292 7.580885830296587 -2.8199664825478975e-15
  endloop
endfacet
facet normal 0.0 0.0 -1.0
  outer loop
    vertex 19.587652189031292 7.580885830296587 -2.8199664825478975e-15
    vertex 19.587652189031292 24.967550703499857 -2.8199664825478975e-15
    vertex 21.75828078310859 24.068446900958165 -2.8199664825478975e-15
  endloop
endfacet
facet normal 0.0 0.0 -1.0
  outer loop
    vertex 19.587652189031292 7.580885830296587 -2.8199664825478975e-15
    vertex 21.75828078310859 24.068446900958165 -2.8199664825478975e-15
    vertex 21.75828078310861 8.479989632838254 -2.8199664825478975e-15
  endloop
endfacet
facet normal 0.0 0.0 -1.0
  outer loop
    vertex 21.75828078310861 8.479989632838254 -2.8199664825478975e-15
    vertex 21.75828078310859 24.068446900958165 -2.8199664825478975e-15
    vertex 23.622241813787518 22.63817929757714 -2.8199664825478975e-15
  endloop
endfacet
facet normal 0.0 0.0 -1.0
  outer loop
    vertex 21.75828078310861 8.479989632838254 -2.8199664825478975e-15
    vertex 23.622241813787518 22.63817929757714 -2.8199664825478975e-15
    vertex 23.622241813787518 9.910257236219275 -2.8199664825478975e-15
  endloop
endfacet
facet normal 0.0 0.0 -1.0
  outer loop
    vertex 23.622241813787518 9.910257236219275 -2.8199664825478975e-15
    vertex 23.622241813787518 22.63817929757714 -2.8199664825478975e-15
    vertex 25.052509417168544 20.77421826689821 -2.8199664825478975e-15
  endloop
endfacet
facet normal 0.0 0.0 -1.0
  outer loop
    vertex 23.622241813787518 9.910257236219275 -2.8199664825478975e-15
    vertex 25.052509417168544 20.77421826689821 -2.8199664825478975e-15
    vertex 25.052509417168544 11.77421826689821 -2.8199664825478975e-15
  endloop
endfacet
facet normal 0.0 0.0 -1.0
  outer loop
    vertex 25.052509417168544 11.77421826689821 -2.8199664825478975e-15
    vertex 25.052509417168544 20.77421826689821 -2.8199664825478975e-15
    vertex 25.95161321971021 18.60358967282089 -2.8199664825478975e-15
  endloop
endfacet
facet normal 0.0 0.0 -1.0
  outer loop
    vertex 25.052509417168544 11.77421826689821 -2.8199664825478975e-15
    vertex 25.95161321971021 18.60358967282089 -2.8199664825478975e-15
    vertex 25.95161321971021 13.944846860975513 -2.8199664825478975e-15
  endloop
endfacet
facet normal 0.0 0.0 -1.0
  outer loop
    vertex 25.95161321971021 13.944846860975513 -2.8199664825478975e-15
    vertex 25.95161321971021 18.60358967282089 -2.8199664825478975e-15
    vertex 26.258280783108603 16.274218266898206 -2.8199664825478975e-15
  endloop
endfacet
facet normal -0.500000000000002 0.8660254037844375 0.0
  outer loop
    vertex 21.75828078310861 8.479989632838254 20.000000000000007
    vertex 23.622241813787518 9.910257236219275 -2.8199664825478975e-15
    vertex 21.75828078310861 8.479989632838254 -2.8199664825478975e-15
  endloop
endfacet
facet normal -0.7071067811865495 0.7071067811865457 0.0
  outer loop
    vertex 23.622241813787518 9.910257236219275 -2.8199664825478975e-15
    vertex 21.75828078310861 8.479989632838254 20.000000000000007
    vertex 23.622241813787518 9.910257236219275 20.000000000000007
  endloop
endfacet
facet normal -0.8660254037844383 0.5000000000000009 0.0
  outer loop
    vertex 25.052509417168544 11.77421826689821 20.000000000000007
    vertex 23.622241813787518 9.910257236219275 -2.8199664825478975e-15
    vertex 23.622241813787518 9.910257236219275 20.000000000000007
  endloop
endfacet
facet normal -0.7071067811865495 0.7071067811865457 0.0
  outer loop
    vertex 23.622241813787518 9.910257236219275 -2.8199664825478975e-15
    vertex 25.052509417168544 11.77421826689821 20.000000000000007
    vertex 25.052509417168544 11.77421826689821 -2.8199664825478975e-15
  endloop
endfacet
facet normal -0.9659258262890679 0.2588190451025228 0.0
  outer loop
    vertex 25.95161321971021 13.944846860975513 20.000000000000007
    vertex 25.052509417168544 11.77421826689821 -2.8199664825478975e-15
    vertex 25.052509417168544 11.77421826689821 20.000000000000007
  endloop
endfacet
facet normal -0.8660254037844383 0.5000000000000009 0.0
  outer loop
    vertex 25.052509417168544 11.77421826689821 -2.8199664825478975e-15
    vertex 25.95161321971021 13.944846860975513 20.000000000000007
    vertex 25.95161321971021 13.944846860975513 -2.8199664825478975e-15
  endloop
endfacet
facet normal -1.0 -3.297110661389356e-16 0.0
  outer loop
    vertex 26.258280783108603 16.274218266898206 20.000000000000007
    vertex 25.95161321971021 13.944846860975513 -2.8199664825478975e-15
    vertex 25.95161321971021 13.944846860975513 20.000000000000007
  endloop
endfacet
facet normal -0.9659258262890679 0.2588190451025228 0.0
  outer loop
    vertex 25.95161321971021 13.944846860975513 -2.8199664825478975e-15
    vertex 26.258280783108603 16.274218266898206 20.000000000000007
    vertex 26.258280783108603 16.274218266898206 -2.8199664825478975e-15
  endloop
endfacet
facet normal -0.965925826289068 -0.2588190451025217 0.0
  outer loop
    vertex 25.95161321971021 18.60358967282089 20.000000000000007
    vertex 26.258280783108603 16.274218266898206 -2.8199664825478975e-15
    vertex 26.258280783108603 16.274218266898206 20.000000000000007
  endloop
endfacet
facet normal -1.0 -3.297110661389356e-16 0.0
  outer loop
    vertex 26.258280783108603 16.274218266898206 -2.8199664825478975e-15
    vertex 25.95161321971021 18.60358967282089 20.000000000000007
    vertex 25.95161321971021 18.60358967282089 -2.8199664825478975e-15
  endloop
endfacet
facet normal -0.8660254037844384 -0.5000000000000002 0.0
  outer loop
    vertex 25.052509417168544 20.77421826689821 20.000000000000007
    vertex 25.95161321971021 18.60358967282089 -2.8199664825478975e-15
    vertex 25.95161321971021 18.60358967282089 20.000000000000007
  endloop
endfacet
facet normal -0.965925826289068 -0.2588190451025217 0.0
  outer loop
    vertex 25.95161321971021 18.60358967282089 -2.8199664825478975e-15
    vertex 25.052509417168544 20.77421826689821 20.000000000000007
    vertex 25.052509417168544 20.77421826689821 -2.8199664825478975e-15
  endloop
endfacet
facet normal -0.7071067811865476 -0.7071067811865476 0.0
  outer loop
    vertex 23.622241813787518 22.63817929757714 20.000000000000007
    vertex 25.052509417168544 20.77421826689821 -2.8199664825478975e-15
    vertex 25.052509417168544 20.77421826689821 20.000000000000007
  endloop
endfacet
facet normal -0.8660254037844384 -0.5000000000000002 0.0
  outer loop
    vertex 25.052509417168544 20.77421826689821 -2.8199664825478975e-15
    vertex 23.622241813787518 22.63817929757714 20.000000000000007
    vertex 23.622241813787518 22.63817929757714 -2.8199664825478975e-15
  endloop
endfacet
facet normal -0.7071067811865476 -0.7071067811865476 0.0
  outer loop
    vertex 23.622241813787518 22.63817929757714 20.000000000000007
    vertex 21.75828078310859 24.068446900958165 -2.8199664825478975e-15
    vertex 23.622241813787518 22.63817929757714 -2.8199664825478975e-15
  endloop
endfacet
facet normal -0.5000000000000058 -0.8660254037844354 0.0
  outer loop
    vertex 21.75828078310859 24.068446900958165 -2.8199664825478975e-15
    vertex 23.622241813787518 22.63817929757714 20.000000000000007
    vertex 21.75828078310859 24.068446900958165 20.000000000000007
  endloop
endfacet
facet normal -0.5000000000000058 -0.8660254037844354 0.0
  outer loop
    vertex 21.75828078310859 24.068446900958165 20.000000000000007
    vertex 19.587652189031292 24.967550703499857 -2.8199664825478975e-15
    vertex 21.75828078310859 24.068446900958165 -2.8199664825478975e-15
  endloop
endfacet
facet normal -0.25881904510252296 -0.9659258262890676 0.0
  outer loop
    vertex 19.587652189031292 24.967550703499857 -2.8199664825478975e-15
    vertex 21.75828078310859 24.068446900958165 20.000000000000007
    vertex 19.587652189031292 24.967550703499857 20.000000000000007
  endloop
endfacet
facet normal -0.25881904510252296 -0.9659258262890676 0.0
  outer loop
    vertex 19.587652189031292 24.967550703499857 20.000000000000007
    vertex 17.258280783108596 25.274218266898224 -2.8199664825478975e-15
    vertex 19.587652189031292 24.967550703499857 -2.8199664825478975e-15
  endloop
endfacet
facet normal 0.0 -1.0 0.0
  outer loop
    vertex 17.258280783108596 25.274218266898224 -2.8199664825478975e-15
    vertex 19.587652189031292 24.967550703499857 20.000000000000007
    vertex 17.258280783108596 25.274218266898224 20.000000000000007
  endloop
endfacet
facet normal 0.0 -1.0 0.0
  outer loop
    vertex 17.258280783108596 25.274218266898224 20.000000000000007
    vertex 14.928909377185903 24.967550703499857 -2.8199664825478975e-15
    vertex 17.258280783108596 25.274218266898224 -2.8199664825478975e-15
  endloop
endfacet
facet normal 0.25881904510252296 -0.9659258262890676 0.0
  outer loop
    vertex 14.928909377185903 24.967550703499857 -2.8199664825478975e-15
    vertex 17.258280783108596 25.274218266898224 20.000000000000007
    vertex 14.928909377185903 24.967550703499857 20.000000000000007
  endloop
endfacet
facet normal 0.25881904510252296 -0.9659258262890676 0.0
  outer loop
    vertex 14.928909377185903 24.967550703499857 20.000000000000007
    vertex 12.758280783108605 24.068446900958165 -2.8199664825478975e-15
    vertex 14.928909377185903 24.967550703499857 -2.8199664825478975e-15
  endloop
endfacet
facet normal 0.5000000000000058 -0.8660254037844354 0.0
  outer loop
    vertex 12.758280783108605 24.068446900958165 -2.8199664825478975e-15
    vertex 14.928909377185903 24.967550703499857 20.000000000000007
    vertex 12.758280783108605 24.068446900958165 20.000000000000007
  endloop
endfacet
facet normal 0.5000000000000058 -0.8660254037844354 0.0
  outer loop
    vertex 12.758280783108605 24.068446900958165 20.000000000000007
    vertex 10.894319752429677 22.63817929757714 -2.8199664825478975e-15
    vertex 12.758280783108605 24.068446900958165 -2.8199664825478975e-15
  endloop
endfacet
facet normal 0.7071067811865476 -0.7071067811865476 0.0
  outer loop
    vertex 10.894319752429677 22.63817929757714 -2.8199664825478975e-15
    vertex 12.758280783108605 24.068446900958165 20.000000000000007
    vertex 10.894319752429677 22.63817929757714 20.000000000000007
  endloop
endfacet
facet normal 0.7071067811865476 -0.7071067811865476 0.0
  outer loop
    vertex 10.894319752429677 22.63817929757714 -2.8199664825478975e-15
    vertex 9.46405214904865 20.77421826689821 20.000000000000007
    vertex 9.46405214904865 20.77421826689821 -2.8199664825478975e-15
  endloop
endfacet
facet normal 0.8660254037844373 -0.5000000000000023 0.0
  outer loop
    vertex 9.46405214904865 20.77421826689821 20.000000000000007
    vertex 10.894319752429677 22.63817929757714 -2.8199664825478975e-15
    vertex 10.894319752429677 22.63817929757714 20.000000000000007
  endloop
endfacet
facet normal 0.8660254037844373 -0.5000000000000023 0.0
  outer loop
    vertex 9.46405214904865 20.77421826689821 -2.8199664825478975e-15
    vertex 8.564948346506972 18.60358967282089 20.000000000000007
    vertex 8.564948346506972 18.60358967282089 -2.8199664825478975e-15
  endloop
endfacet
facet normal 0.9659258262890686 -0.25881904510251924 0.0
  outer loop
    vertex 8.564948346506972 18.60358967282089 20.000000000000007
    vertex 9.46405214904865 20.77421826689821 -2.8199664825478975e-15
    vertex 9.46405214904865 20.77421826689821 20.000000000000007
  endloop
endfacet
facet normal 0.9659258262890686 -0.25881904510251924 0.0
  outer loop
    vertex 8.564948346506972 18.60358967282089 -2.8199664825478975e-15
    vertex 8.258280783108603 16.274218266898206 20.000000000000007
    vertex 8.258280783108603 16.274218266898206 -2.8199664825478975e-15
  endloop
endfacet
facet normal 1.0 4.42882161813651e-15 0.0
  outer loop
    vertex 8.258280783108603 16.274218266898206 20.000000000000007
    vertex 8.564948346506972 18.60358967282089 -2.8199664825478975e-15
    vertex 8.564948346506972 18.60358967282089 20.000000000000007
  endloop
endfacet
facet normal 1.0 4.42882161813651e-15 0.0
  outer loop
    vertex 8.258280783108603 16.274218266898206 -2.8199664825478975e-15
    vertex 8.564948346506993 13.944846860975513 20.000000000000007
    vertex 8.564948346506993 13.944846860975513 -2.8199664825478975e-15
  endloop
endfacet
facet normal 0.9659258262890674 0.25881904510252407 0.0
  outer loop
    vertex 8.564948346506993 13.944846860975513 20.000000000000007
    vertex 8.258280783108603 16.274218266898206 -2.8199664825478975e-15
    vertex 8.258280783108603 16.274218266898206 20.000000000000007
  endloop
endfacet
facet normal 0.9659258262890674 0.25881904510252407 0.0
  outer loop
    vertex 8.564948346506993 13.944846860975513 -2.8199664825478975e-15
    vertex 9.464052149048673 11.774218266898199 20.000000000000007
    vertex 9.464052149048673 11.774218266898199 -2.8199664825478975e-15
  endloop
endfacet
facet normal 0.8660254037844387 0.5 0.0
  outer loop
    vertex 9.464052149048673 11.774218266898199 20.000000000000007
    vertex 8.564948346506993 13.944846860975513 -2.8199664825478975e-15
    vertex 8.564948346506993 13.944846860975513 20.000000000000007
  endloop
endfacet
facet normal 0.8660254037844387 0.5 0.0
  outer loop
    vertex 9.464052149048673 11.774218266898199 -2.8199664825478975e-15
    vertex 10.894319752429677 9.910257236219275 20.000000000000007
    vertex 10.894319752429677 9.910257236219275 -2.8199664825478975e-15
  endloop
endfacet
facet normal 0.707106781186549 0.7071067811865461 0.0
  outer loop
    vertex 10.894319752429677 9.910257236219275 20.000000000000007
    vertex 9.464052149048673 11.774218266898199 -2.8199664825478975e-15
    vertex 9.464052149048673 11.774218266898199 20.000000000000007
  endloop
endfacet
facet normal 0.707106781186549 0.7071067811865461 0.0
  outer loop
    vertex 10.894319752429677 9.910257236219275 20.000000000000007
    vertex 12.758280783108605 8.479989632838254 -2.8199664825478975e-15
    vertex 10.894319752429677 9.910257236219275 -2.8199664825478975e-15
  endloop
endfacet
facet normal 0.49999999999999956 0.8660254037844389 0.0
  outer loop
    vertex 12.758280783108605 8.479989632838254 -2.8199664825478975e-15
    vertex 10.894319752429677 9.910257236219275 20.000000000000007
    vertex 12.758280783108605 8.479989632838254 20.000000000000007
  endloop
endfacet
facet normal 0.49999999999999956 0.8660254037844389 0.0
  outer loop
    vertex 12.758280783108605 8.479989632838254 20.000000000000007
    vertex 14.928909377185926 7.580885830296587 -2.8199664825478975e-15
    vertex 12.758280783108605 8.479989632838254 -2.8199664825478975e-15
  endloop
endfacet
facet normal 0.25881904510251974 0.9659258262890686 0.0
  outer loop
    vertex 14.928909377185926 7.580885830296587 -2.8199664825478975e-15
    vertex 12.758280783108605 8.479989632838254 20.000000000000007
    vertex 14.928909377185926 7.580885830296587 20.000000000000007
  endloop
endfacet
facet normal 0.25881904510251974 0.9659258262890686 0.0
  outer loop
    vertex 14.928909377185926 7.580885830296587 20.000000000000007
    vertex 17.258280783108596 7.274218266898207 -2.8199664825478975e-15
    vertex 14.928909377185926 7.580885830296587 -2.8199664825478975e-15
  endloop
endfacet
facet normal 6.594221322778707e-16 1.0 0.0
  outer loop
    vertex 17.258280783108596 7.274218266898207 -2.8199664825478975e-15
    vertex 14.928909377185926 7.580885830296587 20.000000000000007
    vertex 17.258280783108596 7.274218266898207 20.000000000000007
  endloop
endfacet
facet normal 6.594221322778707e-16 1.0 0.0
  outer loop
    vertex 17.258280783108596 7.274218266898207 20.000000000000007
    vertex 19.587652189031292 7.580885830296587 -2.8199664825478975e-15
    vertex 17.258280783108596 7.274218266898207 -2.8199664825478975e-15
  endloop
endfacet
facet normal -0.2588190451025191 0.9659258262890686 0.0
  outer loop
    vertex 19.587652189031292 7.580885830296587 -2.8199664825478975e-15
    vertex 17.258280783108596 7.274218266898207 20.000000000000007
    vertex 19.587652189031292 7.580885830296587 20.000000000000007
  endloop
endfacet
facet normal -0.2588190451025191 0.9659258262890686 0.0
  outer loop
    vertex 19.587652189031292 7.580885830296587 20.000000000000007
    vertex 21.75828078310861 8.479989632838254 -2.8199664825478975e-15
    vertex 19.587652189031292 7.580885830296587 -2.8199664825478975e-15
  endloop
endfacet
facet normal -0.500000000000002 0.8660254037844375 0.0
  outer loop
    vertex 21.75828078310861 8.479989632838254 -2.8199664825478975e-15
    vertex 19.587652189031292 7.580885830296587 20.000000000000007
    vertex 21.75828078310861 8.479989632838254 20.000000000000007
  endloop
endfacet
facet normal 1.0 5.738754772796608e-15 0.0
  outer loop
    vertex 27.771224223978823 16.274218266898174 -2.8199664825478975e-15
    vertex 27.413004362961434 13.553268284315369 20.000000000000007
    vertex 27.413004362961434 13.553268284315369 -2.8199664825478975e-15
  endloop
endfacet
facet normal 0.9659258262890689 -0.25881904510251885 0.0
  outer loop
    vertex 27.413004362961434 13.553268284315369 20.000000000000007
    vertex 27.771224223978823 16.274218266898174 -2.8199664825478975e-15
    vertex 27.771224223978823 16.274218266898174 20.000000000000007
  endloop
endfacet
facet normal 0.9659258262890689 -0.25881904510251885 0.0
  outer loop
    vertex 27.413004362961434 13.553268284315369 -2.8199664825478975e-15
    vertex 26.362756871451204 11.017746546463066 20.000000000000007
    vertex 26.362756871451204 11.017746546463066 -2.8199664825478975e-15
  endloop
endfacet
facet normal 0.8660254037844366 -0.5000000000000037 0.0
  outer loop
    vertex 26.362756871451204 11.017746546463066 20.000000000000007
    vertex 27.413004362961434 13.553268284315369 -2.8199664825478975e-15
    vertex 27.413004362961434 13.553268284315369 20.000000000000007
  endloop
endfacet
facet normal -0.0 -0.0 1.0
  outer loop
    vertex 8.153804694766002 11.017746546463055 20.000000000000007
    vertex 8.564948346506993 13.944846860975513 20.000000000000007
    vertex 8.258280783108603 16.274218266898206 20.000000000000007
  endloop
endfacet
facet normal -0.0 -0.0 1.0
  outer loop
    vertex 8.564948346506993 13.944846860975513 20.000000000000007
    vertex 8.153804694766002 11.017746546463055 20.000000000000007
    vertex 9.824507185838623 8.840444669628228 20.000000000000007
  endloop
endfacet
facet normal -0.0 -0.0 1.0
  outer loop
    vertex 8.564948346506993 13.944846860975513 20.000000000000007
    vertex 9.824507185838623 8.840444669628228 20.000000000000007
    vertex 9.464052149048673 11.774218266898199 20.000000000000007
  endloop
endfacet
facet normal -0.0 -0.0 1.0
  outer loop
    vertex 9.464052149048673 11.774218266898199 20.000000000000007
    vertex 9.824507185838623 8.840444669628228 20.000000000000007
    vertex 10.894319752429677 9.910257236219275 20.000000000000007
  endloop
endfacet
facet normal -0.0 -0.0 1.0
  outer loop
    vertex 10.894319752429677 9.910257236219275 20.000000000000007
    vertex 9.824507185838623 8.840444669628228 20.000000000000007
    vertex 12.00180906267346 7.169742178555606 20.000000000000007
  endloop
endfacet
facet normal -0.0 -0.0 1.0
  outer loop
    vertex 10.894319752429677 9.910257236219275 20.000000000000007
    vertex 12.00180906267346 7.169742178555606 20.000000000000007
    vertex 12.758280783108605 8.479989632838254 20.000000000000007
  endloop
endfacet
facet normal -0.0 -0.0 1.0
  outer loop
    vertex 12.758280783108605 8.479989632838254 20.000000000000007
    vertex 12.00180906267346 7.169742178555606 20.000000000000007
    vertex 14.537330800525782 6.1194946870453775 20.000000000000007
  endloop
endfacet
facet normal -0.0 -0.0 1.0
  outer loop
    vertex 12.758280783108605 8.479989632838254 20.000000000000007
    vertex 14.537330800525782 6.1194946870453775 20.000000000000007
    vertex 14.928909377185926 7.580885830296587 20.000000000000007
  endloop
endfacet
facet normal -0.0 -0.0 1.0
  outer loop
    vertex 14.928909377185926 7.580885830296587 20.000000000000007
    vertex 14.537330800525782 6.1194946870453775 20.000000000000007
    vertex 17.25828078310862 5.761274826027975 20.000000000000007
  endloop
endfacet
facet normal -0.0 -0.0 1.0
  outer loop
    vertex 14.928909377185926 7.580885830296587 20.000000000000007
    vertex 17.25828078310862 5.761274826027975 20.000000000000007
    vertex 17.258280783108596 7.274218266898207 20.000000000000007
  endloop
endfacet
facet normal -0.0 -0.0 1.0
  outer loop
    vertex 17.258280783108596 7.274218266898207 20.000000000000007
    vertex 17.25828078310862 5.761274826027975 20.000000000000007
    vertex 19.587652189031292 7.580885830296587 20.000000000000007
  endloop
endfacet
facet normal -0.0 -0.0 1.0
  outer loop
    vertex 19.587652189031292 7.580885830296587 20.000000000000007
    vertex 17.25828078310862 5.761274826027975 20.000000000000007
    vertex 19.979230765691415 6.1194946870453775 20.000000000000007
  endloop
endfacet
facet normal -0.0 -0.0 1.0
  outer loop
    vertex 19.587652189031292 7.580885830296587 20.000000000000007
    vertex 19.979230765691415 6.1194946870453775 20.000000000000007
    vertex 21.75828078310861 8.479989632838254 20.000000000000007
  endloop
endfacet
facet normal -0.0 -0.0 1.0
  outer loop
    vertex 21.75828078310861 8.479989632838254 20.000000000000007
    vertex 19.979230765691415 6.1194946870453775 20.000000000000007
    vertex 22.514752503543733 7.169742178555606 20.000000000000007
  endloop
endfacet
facet normal -0.0 -0.0 1.0
  outer loop
    vertex 21.75828078310861 8.479989632838254 20.000000000000007
    vertex 22.514752503543733 7.169742178555606 20.000000000000007
    vertex 23.622241813787518 9.910257236219275 20.000000000000007
  endloop
endfacet
facet normal -0.0 -0.0 1.0
  outer loop
    vertex 23.622241813787518 9.910257236219275 20.000000000000007
    vertex 22.514752503543733 7.169742178555606 20.000000000000007
    vertex 24.692054380378593 8.840444669628262 20.000000000000007
  endloop
endfacet
facet normal -0.0 -0.0 1.0
  outer loop
    vertex 23.622241813787518 9.910257236219275 20.000000000000007
    vertex 24.692054380378593 8.840444669628262 20.000000000000007
    vertex 25.052509417168544 11.77421826689821 20.000000000000007
  endloop
endfacet
facet normal -0.0 -0.0 1.0
  outer loop
    vertex 25.052509417168544 11.77421826689821 20.000000000000007
    vertex 24.692054380378593 8.840444669628262 20.000000000000007
    vertex 26.362756871451204 11.017746546463066 20.000000000000007
  endloop
endfacet
facet normal -0.0 -0.0 1.0
  outer loop
    vertex 25.052509417168544 11.77421826689821 20.000000000000007
    vertex 26.362756871451204 11.017746546463066 20.000000000000007
    vertex 25.95161321971021 13.944846860975513 20.000000000000007
  endloop
endfacet
facet normal -0.0 -0.0 1.0
  outer loop
    vertex 25.95161321971021 13.944846860975513 20.000000000000007
    vertex 26.362756871451204 11.017746546463066 20.000000000000007
    vertex 26.258280783108603 16.274218266898206 20.000000000000007
  endloop
endfacet
facet normal -0.0 -0.0 1.0
  outer loop
    vertex 26.258280783108603 16.274218266898206 20.000000000000007
    vertex 26.362756871451204 11.017746546463066 20.000000000000007
    vertex 26.362756871451182 21.530689987333343 20.000000000000007
  endloop
endfacet
facet normal -0.0 -0.0 1.0
  outer loop
    vertex 26.362756871451182 21.530689987333343 20.000000000000007
    vertex 26.362756871451204 11.017746546463066 20.000000000000007
    vertex 27.413004362961388 18.99516824948108 20.000000000000007
  endloop
endfacet
facet normal -0.0 -0.0 1.0
  outer loop
    vertex 27.413004362961388 18.99516824948108 20.000000000000007
    vertex 26.362756871451204 11.017746546463066 20.000000000000007
    vertex 27.413004362961434 13.553268284315369 20.000000000000007
  endloop
endfacet
facet normal -0.0 -0.0 1.0
  outer loop
    vertex 27.413004362961388 18.99516824948108 20.000000000000007
    vertex 27.413004362961434 13.553268284315369 20.000000000000007
    vertex 27.771224223978823 16.274218266898174 20.000000000000007
  endloop
endfacet
facet normal -0.0 -0.0 1.0
  outer loop
    vertex 7.103557203255795 13.553268284315346 20.000000000000007
    vertex 7.103557203255773 18.995168249481036 20.000000000000007
    vertex 6.74533734223836 16.27421826689824 20.000000000000007
  endloop
endfacet
facet normal -0.0 -0.0 1.0
  outer loop
    vertex 7.103557203255773 18.995168249481036 20.000000000000007
    vertex 7.103557203255795 13.553268284315346 20.000000000000007
    vertex 8.153804694765979 21.53068998733332 20.000000000000007
  endloop
endfacet
facet normal -0.0 -0.0 1.0
  outer loop
    vertex 8.153804694765979 21.53068998733332 20.000000000000007
    vertex 7.103557203255795 13.553268284315346 20.000000000000007
    vertex 8.153804694766002 11.017746546463055 20.000000000000007
  endloop
endfacet
facet normal -0.0 -0.0 1.0
  outer loop
    vertex 8.153804694765979 21.53068998733332 20.000000000000007
    vertex 8.153804694766002 11.017746546463055 20.000000000000007
    vertex 8.258280783108603 16.274218266898206 20.000000000000007
  endloop
endfacet
facet normal -0.0 -0.0 1.0
  outer loop
    vertex 8.153804694765979 21.53068998733332 20.000000000000007
    vertex 8.258280783108603 16.274218266898206 20.000000000000007
    vertex 8.564948346506972 18.60358967282089 20.000000000000007
  endloop
endfacet
facet normal -0.0 -0.0 1.0
  outer loop
    vertex 8.153804694765979 21.53068998733332 20.000000000000007
    vertex 8.564948346506972 18.60358967282089 20.000000000000007
    vertex 9.824507185838623 23.70799186416817 20.000000000000007
  endloop
endfacet
facet normal -0.0 -0.0 1.0
  outer loop
    vertex 9.824507185838623 23.70799186416817 20.000000000000007
    vertex 8.564948346506972 18.60358967282089 20.000000000000007
    vertex 9.46405214904865 20.77421826689821 20.000000000000007
  endloop
endfacet
facet normal -0.0 -0.0 1.0
  outer loop
    vertex 9.824507185838623 23.70799186416817 20.000000000000007
    vertex 9.46405214904865 20.77421826689821 20.000000000000007
    vertex 10.894319752429677 22.63817929757714 20.000000000000007
  endloop
endfacet
facet normal -0.0 -0.0 1.0
  outer loop
    vertex 9.824507185838623 23.70799186416817 20.000000000000007
    vertex 10.894319752429677 22.63817929757714 20.000000000000007
    vertex 12.001809062673484 25.37869435524085 20.000000000000007
  endloop
endfacet
facet normal -0.0 -0.0 1.0
  outer loop
    vertex 12.001809062673484 25.37869435524085 20.000000000000007
    vertex 10.894319752429677 22.63817929757714 20.000000000000007
    vertex 12.758280783108605 24.068446900958165 20.000000000000007
  endloop
endfacet
facet normal -0.0 -0.0 1.0
  outer loop
    vertex 12.001809062673484 25.37869435524085 20.000000000000007
    vertex 12.758280783108605 24.068446900958165 20.000000000000007
    vertex 14.537330800525735 26.428941846751076 20.000000000000007
  endloop
endfacet
facet normal -0.0 -0.0 1.0
  outer loop
    vertex 14.537330800525735 26.428941846751076 20.000000000000007
    vertex 12.758280783108605 24.068446900958165 20.000000000000007
    vertex 14.928909377185903 24.967550703499857 20.000000000000007
  endloop
endfacet
facet normal -0.0 -0.0 1.0
  outer loop
    vertex 14.537330800525735 26.428941846751076 20.000000000000007
    vertex 14.928909377185903 24.967550703499857 20.000000000000007
    vertex 17.25828078310862 26.78716170776847 20.000000000000007
  endloop
endfacet
facet normal -0.0 -0.0 1.0
  outer loop
    vertex 17.25828078310862 26.78716170776847 20.000000000000007
    vertex 14.928909377185903 24.967550703499857 20.000000000000007
    vertex 17.258280783108596 25.274218266898224 20.000000000000007
  endloop
endfacet
facet normal -0.0 -0.0 1.0
  outer loop
    vertex 17.25828078310862 26.78716170776847 20.000000000000007
    vertex 17.258280783108596 25.274218266898224 20.000000000000007
    vertex 19.587652189031292 24.967550703499857 20.000000000000007
  endloop
endfacet
facet normal -0.0 -0.0 1.0
  outer loop
    vertex 17.25828078310862 26.78716170776847 20.000000000000007
    vertex 19.587652189031292 24.967550703499857 20.000000000000007
    vertex 19.979230765691458 26.428941846751076 20.000000000000007
  endloop
endfacet
facet normal -0.0 -0.0 1.0
  outer loop
    vertex 19.979230765691458 26.428941846751076 20.000000000000007
    vertex 19.587652189031292 24.967550703499857 20.000000000000007
    vertex 21.75828078310859 24.068446900958165 20.000000000000007
  endloop
endfacet
facet normal -0.0 -0.0 1.0
  outer loop
    vertex 19.979230765691458 26.428941846751076 20.000000000000007
    vertex 21.75828078310859 24.068446900958165 20.000000000000007
    vertex 22.51475250354371 25.37869435524085 20.000000000000007
  endloop
endfacet
facet normal -0.0 -0.0 1.0
  outer loop
    vertex 22.51475250354371 25.37869435524085 20.000000000000007
    vertex 21.75828078310859 24.068446900958165 20.000000000000007
    vertex 23.622241813787518 22.63817929757714 20.000000000000007
  endloop
endfacet
facet normal -0.0 -0.0 1.0
  outer loop
    vertex 22.51475250354371 25.37869435524085 20.000000000000007
    vertex 23.622241813787518 22.63817929757714 20.000000000000007
    vertex 24.692054380378593 23.70799186416817 20.000000000000007
  endloop
endfacet
facet normal -0.0 -0.0 1.0
  outer loop
    vertex 24.692054380378593 23.70799186416817 20.000000000000007
    vertex 23.622241813787518 22.63817929757714 20.000000000000007
    vertex 25.052509417168544 20.77421826689821 20.000000000000007
  endloop
endfacet
facet normal -0.0 -0.0 1.0
  outer loop
    vertex 24.692054380378593 23.70799186416817 20.000000000000007
    vertex 25.052509417168544 20.77421826689821 20.000000000000007
    vertex 26.362756871451182 21.530689987333343 20.000000000000007
  endloop
endfacet
facet normal -0.0 -0.0 1.0
  outer loop
    vertex 26.362756871451182 21.530689987333343 20.000000000000007
    vertex 25.052509417168544 20.77421826689821 20.000000000000007
    vertex 25.95161321971021 18.60358967282089 20.000000000000007
  endloop
endfacet
facet normal -0.0 -0.0 1.0
  outer loop
    vertex 26.362756871451182 21.530689987333343 20.000000000000007
    vertex 25.95161321971021 18.60358967282089 20.000000000000007
    vertex 26.258280783108603 16.274218266898206 20.000000000000007
  endloop
endfacet
facet normal 0.8660254037844366 -0.5000000000000037 0.0
  outer loop
    vertex 26.362756871451204 11.017746546463066 -2.8199664825478975e-15
    vertex 24.692054380378593 8.840444669628262 20.000000000000007
    vertex 24.692054380378593 8.840444669628262 -2.8199664825478975e-15
  endloop
endfacet
facet normal 0.7071067811865478 -0.7071067811865475 0.0
  outer loop
    vertex 24.692054380378593 8.840444669628262 20.000000000000007
    vertex 26.362756871451204 11.017746546463066 -2.8199664825478975e-15
    vertex 26.362756871451204 11.017746546463066 20.000000000000007
  endloop
endfacet
facet normal 0.0 0.0 -1.0
  outer loop
    vertex 7.103557203255773 18.995168249481036 -2.8199664825478975e-15
    vertex 7.103557203255795 13.553268284315346 -2.8199664825478975e-15
    vertex 6.74533734223836 16.27421826689824 -2.8199664825478975e-15
  endloop
endfacet
facet normal 0.0 0.0 -1.0
  outer loop
    vertex 7.103557203255795 13.553268284315346 -2.8199664825478975e-15
    vertex 7.103557203255773 18.995168249481036 -2.8199664825478975e-15
    vertex 8.153804694765979 21.53068998733332 -2.8199664825478975e-15
  endloop
endfacet
facet normal 0.0 0.0 -1.0
  outer loop
    vertex 7.103557203255795 13.553268284315346 -2.8199664825478975e-15
    vertex 8.153804694765979 21.53068998733332 -2.8199664825478975e-15
    vertex 8.153804694766002 11.017746546463055 -2.8199664825478975e-15
  endloop
endfacet
facet normal 0.0 0.0 -1.0
  outer loop
    vertex 8.153804694766002 11.017746546463055 -2.8199664825478975e-15
    vertex 8.153804694765979 21.53068998733332 -2.8199664825478975e-15
    vertex 8.258280783108603 16.274218266898206 -2.8199664825478975e-15
  endloop
endfacet
facet normal 0.0 0.0 -1.0
  outer loop
    vertex 8.258280783108603 16.274218266898206 -2.8199664825478975e-15
    vertex 8.153804694765979 21.53068998733332 -2.8199664825478975e-15
    vertex 8.564948346506972 18.60358967282089 -2.8199664825478975e-15
  endloop
endfacet
facet normal 0.0 0.0 -1.0
  outer loop
    vertex 8.564948346506972 18.60358967282089 -2.8199664825478975e-15
    vertex 8.153804694765979 21.53068998733332 -2.8199664825478975e-15
    vertex 9.824507185838623 23.70799186416817 -2.8199664825478975e-15
  endloop
endfacet
facet normal 0.0 0.0 -1.0
  outer loop
    vertex 8.564948346506972 18.60358967282089 -2.8199664825478975e-15
    vertex 9.824507185838623 23.70799186416817 -2.8199664825478975e-15
    vertex 9.46405214904865 20.77421826689821 -2.8199664825478975e-15
  endloop
endfacet
facet normal 0.0 0.0 -1.0
  outer loop
    vertex 9.46405214904865 20.77421826689821 -2.8199664825478975e-15
    vertex 9.824507185838623 23.70799186416817 -2.8199664825478975e-15
    vertex 10.894319752429677 22.63817929757714 -2.8199664825478975e-15
  endloop
endfacet
facet normal 0.0 0.0 -1.0
  outer loop
    vertex 10.894319752429677 22.63817929757714 -2.8199664825478975e-15
    vertex 9.824507185838623 23.70799186416817 -2.8199664825478975e-15
    vertex 12.001809062673484 25.37869435524085 -2.8199664825478975e-15
  endloop
endfacet
facet normal 0.0 0.0 -1.0
  outer loop
    vertex 10.894319752429677 22.63817929757714 -2.8199664825478975e-15
    vertex 12.001809062673484 25.37869435524085 -2.8199664825478975e-15
    vertex 12.758280783108605 24.068446900958165 -2.8199664825478975e-15
  endloop
endfacet
facet normal 0.0 0.0 -1.0
  outer loop
    vertex 12.758280783108605 24.068446900958165 -2.8199664825478975e-15
    vertex 12.001809062673484 25.37869435524085 -2.8199664825478975e-15
    vertex 14.537330800525735 26.428941846751076 -2.8199664825478975e-15
  endloop
endfacet
facet normal 0.0 0.0 -1.0
  outer loop
    vertex 12.758280783108605 24.068446900958165 -2.8199664825478975e-15
    vertex 14.537330800525735 26.428941846751076 -2.8199664825478975e-15
    vertex 14.928909377185903 24.967550703499857 -2.8199664825478975e-15
  endloop
endfacet
facet normal 0.0 0.0 -1.0
  outer loop
    vertex 14.928909377185903 24.967550703499857 -2.8199664825478975e-15
    vertex 14.537330800525735 26.428941846751076 -2.8199664825478975e-15
    vertex 17.25828078310862 26.78716170776847 -2.8199664825478975e-15
  endloop
endfacet
facet normal 0.0 0.0 -1.0
  outer loop
    vertex 14.928909377185903 24.967550703499857 -2.8199664825478975e-15
    vertex 17.25828078310862 26.78716170776847 -2.8199664825478975e-15
    vertex 17.258280783108596 25.274218266898224 -2.8199664825478975e-15
  endloop
endfacet
facet normal 0.0 0.0 -1.0
  outer loop
    vertex 17.258280783108596 25.274218266898224 -2.8199664825478975e-15
    vertex 17.25828078310862 26.78716170776847 -2.8199664825478975e-15
    vertex 19.587652189031292 24.967550703499857 -2.8199664825478975e-15
  endloop
endfacet
facet normal 0.0 0.0 -1.0
  outer loop
    vertex 19.587652189031292 24.967550703499857 -2.8199664825478975e-15
    vertex 17.25828078310862 26.78716170776847 -2.8199664825478975e-15
    vertex 19.979230765691458 26.428941846751076 -2.8199664825478975e-15
  endloop
endfacet
facet normal 0.0 0.0 -1.0
  outer loop
    vertex 19.587652189031292 24.967550703499857 -2.8199664825478975e-15
    vertex 19.979230765691458 26.428941846751076 -2.8199664825478975e-15
    vertex 21.75828078310859 24.068446900958165 -2.8199664825478975e-15
  endloop
endfacet
facet normal 0.0 0.0 -1.0
  outer loop
    vertex 21.75828078310859 24.068446900958165 -2.8199664825478975e-15
    vertex 19.979230765691458 26.428941846751076 -2.8199664825478975e-15
    vertex 22.51475250354371 25.37869435524085 -2.8199664825478975e-15
  endloop
endfacet
facet normal 0.0 0.0 -1.0
  outer loop
    vertex 21.75828078310859 24.068446900958165 -2.8199664825478975e-15
    vertex 22.51475250354371 25.37869435524085 -2.8199664825478975e-15
    vertex 23.622241813787518 22.63817929757714 -2.8199664825478975e-15
  endloop
endfacet
facet normal 0.0 0.0 -1.0
  outer loop
    vertex 23.622241813787518 22.63817929757714 -2.8199664825478975e-15
    vertex 22.51475250354371 25.37869435524085 -2.8199664825478975e-15
    vertex 24.692054380378593 23.70799186416817 -2.8199664825478975e-15
  endloop
endfacet
facet normal 0.0 0.0 -1.0
  outer loop
    vertex 23.622241813787518 22.63817929757714 -2.8199664825478975e-15
    vertex 24.692054380378593 23.70799186416817 -2.8199664825478975e-15
    vertex 25.052509417168544 20.77421826689821 -2.8199664825478975e-15
  endloop
endfacet
facet normal 0.0 0.0 -1.0
  outer loop
    vertex 25.052509417168544 20.77421826689821 -2.8199664825478975e-15
    vertex 24.692054380378593 23.70799186416817 -2.8199664825478975e-15
    vertex 26.362756871451182 21.530689987333343 -2.8199664825478975e-15
  endloop
endfacet
facet normal 0.0 0.0 -1.0
  outer loop
    vertex 25.052509417168544 20.77421826689821 -2.8199664825478975e-15
    vertex 26.362756871451182 21.530689987333343 -2.8199664825478975e-15
    vertex 25.95161321971021 18.60358967282089 -2.8199664825478975e-15
  endloop
endfacet
facet normal 0.0 0.0 -1.0
  outer loop
    vertex 25.95161321971021 18.60358967282089 -2.8199664825478975e-15
    vertex 26.362756871451182 21.530689987333343 -2.8199664825478975e-15
    vertex 26.258280783108603 16.274218266898206 -2.8199664825478975e-15
  endloop
endfacet
facet normal 0.0 0.0 -1.0
  outer loop
    vertex 8.153804694766002 11.017746546463055 -2.8199664825478975e-15
    vertex 8.564948346506993 13.944846860975513 -2.8199664825478975e-15
    vertex 9.824507185838623 8.840444669628228 -2.8199664825478975e-15
  endloop
endfacet
facet normal 0.0 0.0 -1.0
  outer loop
    vertex 8.564948346506993 13.944846860975513 -2.8199664825478975e-15
    vertex 8.153804694766002 11.017746546463055 -2.8199664825478975e-15
    vertex 8.258280783108603 16.274218266898206 -2.8199664825478975e-15
  endloop
endfacet
facet normal 0.0 0.0 -1.0
  outer loop
    vertex 9.824507185838623 8.840444669628228 -2.8199664825478975e-15
    vertex 8.564948346506993 13.944846860975513 -2.8199664825478975e-15
    vertex 9.464052149048673 11.774218266898199 -2.8199664825478975e-15
  endloop
endfacet
facet normal 0.0 0.0 -1.0
  outer loop
    vertex 9.824507185838623 8.840444669628228 -2.8199664825478975e-15
    vertex 9.464052149048673 11.774218266898199 -2.8199664825478975e-15
    vertex 10.894319752429677 9.910257236219275 -2.8199664825478975e-15
  endloop
endfacet
facet normal 0.0 0.0 -1.0
  outer loop
    vertex 9.824507185838623 8.840444669628228 -2.8199664825478975e-15
    vertex 10.894319752429677 9.910257236219275 -2.8199664825478975e-15
    vertex 12.00180906267346 7.169742178555606 -2.8199664825478975e-15
  endloop
endfacet
facet normal 0.0 0.0 -1.0
  outer loop
    vertex 12.00180906267346 7.169742178555606 -2.8199664825478975e-15
    vertex 10.894319752429677 9.910257236219275 -2.8199664825478975e-15
    vertex 12.758280783108605 8.479989632838254 -2.8199664825478975e-15
  endloop
endfacet
facet normal 0.0 0.0 -1.0
  outer loop
    vertex 12.00180906267346 7.169742178555606 -2.8199664825478975e-15
    vertex 12.758280783108605 8.479989632838254 -2.8199664825478975e-15
    vertex 14.537330800525782 6.1194946870453775 -2.8199664825478975e-15
  endloop
endfacet
facet normal 0.0 0.0 -1.0
  outer loop
    vertex 14.537330800525782 6.1194946870453775 -2.8199664825478975e-15
    vertex 12.758280783108605 8.479989632838254 -2.8199664825478975e-15
    vertex 14.928909377185926 7.580885830296587 -2.8199664825478975e-15
  endloop
endfacet
facet normal 0.0 0.0 -1.0
  outer loop
    vertex 14.537330800525782 6.1194946870453775 -2.8199664825478975e-15
    vertex 14.928909377185926 7.580885830296587 -2.8199664825478975e-15
    vertex 17.25828078310862 5.761274826027975 -2.8199664825478975e-15
  endloop
endfacet
facet normal 0.0 0.0 -1.0
  outer loop
    vertex 17.25828078310862 5.761274826027975 -2.8199664825478975e-15
    vertex 14.928909377185926 7.580885830296587 -2.8199664825478975e-15
    vertex 17.258280783108596 7.274218266898207 -2.8199664825478975e-15
  endloop
endfacet
facet normal 0.0 0.0 -1.0
  outer loop
    vertex 17.25828078310862 5.761274826027975 -2.8199664825478975e-15
    vertex 17.258280783108596 7.274218266898207 -2.8199664825478975e-15
    vertex 19.587652189031292 7.580885830296587 -2.8199664825478975e-15
  endloop
endfacet
facet normal 0.0 0.0 -1.0
  outer loop
    vertex 17.25828078310862 5.761274826027975 -2.8199664825478975e-15
    vertex 19.587652189031292 7.580885830296587 -2.8199664825478975e-15
    vertex 19.979230765691415 6.1194946870453775 -2.8199664825478975e-15
  endloop
endfacet
facet normal 0.0 0.0 -1.0
  outer loop
    vertex 19.979230765691415 6.1194946870453775 -2.8199664825478975e-15
    vertex 19.587652189031292 7.580885830296587 -2.8199664825478975e-15
    vertex 21.75828078310861 8.479989632838254 -2.8199664825478975e-15
  endloop
endfacet
facet normal 0.0 0.0 -1.0
  outer loop
    vertex 19.979230765691415 6.1194946870453775 -2.8199664825478975e-15
    vertex 21.75828078310861 8.479989632838254 -2.8199664825478975e-15
    vertex 22.514752503543733 7.169742178555606 -2.8199664825478975e-15
  endloop
endfacet
facet normal 0.0 0.0 -1.0
  outer loop
    vertex 22.514752503543733 7.169742178555606 -2.8199664825478975e-15
    vertex 21.75828078310861 8.479989632838254 -2.8199664825478975e-15
    vertex 23.622241813787518 9.910257236219275 -2.8199664825478975e-15
  endloop
endfacet
facet normal 0.0 0.0 -1.0
  outer loop
    vertex 22.514752503543733 7.169742178555606 -2.8199664825478975e-15
    vertex 23.622241813787518 9.910257236219275 -2.8199664825478975e-15
    vertex 24.692054380378593 8.840444669628262 -2.8199664825478975e-15
  endloop
endfacet
facet normal 0.0 0.0 -1.0
  outer loop
    vertex 24.692054380378593 8.840444669628262 -2.8199664825478975e-15
    vertex 23.622241813787518 9.910257236219275 -2.8199664825478975e-15
    vertex 25.052509417168544 11.77421826689821 -2.8199664825478975e-15
  endloop
endfacet
facet normal 0.0 0.0 -1.0
  outer loop
    vertex 24.692054380378593 8.840444669628262 -2.8199664825478975e-15
    vertex 25.052509417168544 11.77421826689821 -2.8199664825478975e-15
    vertex 26.362756871451204 11.017746546463066 -2.8199664825478975e-15
  endloop
endfacet
facet normal 0.0 0.0 -1.0
  outer loop
    vertex 26.362756871451204 11.017746546463066 -2.8199664825478975e-15
    vertex 25.052509417168544 11.77421826689821 -2.8199664825478975e-15
    vertex 25.95161321971021 13.944846860975513 -2.8199664825478975e-15
  endloop
endfacet
facet normal 0.0 0.0 -1.0
  outer loop
    vertex 26.362756871451204 11.017746546463066 -2.8199664825478975e-15
    vertex 25.95161321971021 13.944846860975513 -2.8199664825478975e-15
    vertex 26.258280783108603 16.274218266898206 -2.8199664825478975e-15
  endloop
endfacet
facet normal 0.0 0.0 -1.0
  outer loop
    vertex 26.362756871451204 11.017746546463066 -2.8199664825478975e-15
    vertex 26.258280783108603 16.274218266898206 -2.8199664825478975e-15
    vertex 26.362756871451182 21.530689987333343 -2.8199664825478975e-15
  endloop
endfacet
facet normal 0.0 0.0 -1.0
  outer loop
    vertex 26.362756871451204 11.017746546463066 -2.8199664825478975e-15
    vertex 26.362756871451182 21.530689987333343 -2.8199664825478975e-15
    vertex 27.413004362961388 18.99516824948108 -2.8199664825478975e-15
  endloop
endfacet
facet normal 0.0 0.0 -1.0
  outer loop
    vertex 26.362756871451204 11.017746546463066 -2.8199664825478975e-15
    vertex 27.413004362961388 18.99516824948108 -2.8199664825478975e-15
    vertex 27.413004362961434 13.553268284315369 -2.8199664825478975e-15
  endloop
endfacet
facet normal 0.0 0.0 -1.0
  outer loop
    vertex 27.413004362961434 13.553268284315369 -2.8199664825478975e-15
    vertex 27.413004362961388 18.99516824948108 -2.8199664825478975e-15
    vertex 27.771224223978823 16.274218266898174 -2.8199664825478975e-15
  endloop
endfacet
facet normal 0.5000000000000075 0.8660254037844342 0.0
  outer loop
    vertex 22.51475250354371 25.37869435524085 20.000000000000007
    vertex 24.692054380378593 23.70799186416817 -2.8199664825478975e-15
    vertex 22.51475250354371 25.37869435524085 -2.8199664825478975e-15
  endloop
endfacet
facet normal 0.7071067811865523 0.7071067811865428 0.0
  outer loop
    vertex 24.692054380378593 23.70799186416817 -2.8199664825478975e-15
    vertex 22.51475250354371 25.37869435524085 20.000000000000007
    vertex 24.692054380378593 23.70799186416817 20.000000000000007
  endloop
endfacet
facet normal 0.2588190451025215 0.9659258262890683 0.0
  outer loop
    vertex 19.979230765691458 26.428941846751076 20.000000000000007
    vertex 22.51475250354371 25.37869435524085 -2.8199664825478975e-15
    vertex 19.979230765691458 26.428941846751076 -2.8199664825478975e-15
  endloop
endfacet
facet normal 0.5000000000000075 0.8660254037844342 0.0
  outer loop
    vertex 22.51475250354371 25.37869435524085 -2.8199664825478975e-15
    vertex 19.979230765691458 26.428941846751076 20.000000000000007
    vertex 22.51475250354371 25.37869435524085 20.000000000000007
  endloop
endfacet
facet normal 1.0515109676863335e-15 1.0 0.0
  outer loop
    vertex 17.25828078310862 26.78716170776847 20.000000000000007
    vertex 19.979230765691458 26.428941846751076 -2.8199664825478975e-15
    vertex 17.25828078310862 26.78716170776847 -2.8199664825478975e-15
  endloop
endfacet
facet normal 0.2588190451025215 0.9659258262890683 0.0
  outer loop
    vertex 19.979230765691458 26.428941846751076 -2.8199664825478975e-15
    vertex 17.25828078310862 26.78716170776847 20.000000000000007
    vertex 19.979230765691458 26.428941846751076 20.000000000000007
  endloop
endfacet
facet normal -0.25881904510252035 0.9659258262890685 0.0
  outer loop
    vertex 14.537330800525735 26.428941846751076 20.000000000000007
    vertex 17.25828078310862 26.78716170776847 -2.8199664825478975e-15
    vertex 14.537330800525735 26.428941846751076 -2.8199664825478975e-15
  endloop
endfacet
facet normal 1.0515109676863335e-15 1.0 0.0
  outer loop
    vertex 17.25828078310862 26.78716170776847 -2.8199664825478975e-15
    vertex 14.537330800525735 26.428941846751076 20.000000000000007
    vertex 17.25828078310862 26.78716170776847 20.000000000000007
  endloop
endfacet
facet normal -0.5000000000000098 0.866025403784433 0.0
  outer loop
    vertex 12.001809062673484 25.37869435524085 20.000000000000007
    vertex 14.537330800525735 26.428941846751076 -2.8199664825478975e-15
    vertex 12.001809062673484 25.37869435524085 -2.8199664825478975e-15
  endloop
endfacet
facet normal -0.25881904510252035 0.9659258262890685 0.0
  outer loop
    vertex 14.537330800525735 26.428941846751076 -2.8199664825478975e-15
    vertex 12.001809062673484 25.37869435524085 20.000000000000007
    vertex 14.537330800525735 26.428941846751076 20.000000000000007
  endloop
endfacet
facet normal -0.7071067811865502 0.707106781186545 0.0
  outer loop
    vertex 9.824507185838623 23.70799186416817 20.000000000000007
    vertex 12.001809062673484 25.37869435524085 -2.8199664825478975e-15
    vertex 9.824507185838623 23.70799186416817 -2.8199664825478975e-15
  endloop
endfacet
facet normal -0.5000000000000098 0.866025403784433 0.0
  outer loop
    vertex 12.001809062673484 25.37869435524085 -2.8199664825478975e-15
    vertex 9.824507185838623 23.70799186416817 20.000000000000007
    vertex 12.001809062673484 25.37869435524085 20.000000000000007
  endloop
endfacet
facet normal -0.7071067811865502 0.707106781186545 0.0
  outer loop
    vertex 9.824507185838623 23.70799186416817 20.000000000000007
    vertex 8.153804694765979 21.53068998733332 -2.8199664825478975e-15
    vertex 8.153804694765979 21.53068998733332 20.000000000000007
  endloop
endfacet
facet normal -0.8660254037844379 0.5000000000000013 0.0
  outer loop
    vertex 8.153804694765979 21.53068998733332 -2.8199664825478975e-15
    vertex 9.824507185838623 23.70799186416817 20.000000000000007
    vertex 9.824507185838623 23.70799186416817 -2.8199664825478975e-15
  endloop
endfacet
facet normal -0.8660254037844379 0.5000000000000013 0.0
  outer loop
    vertex 8.153804694765979 21.53068998733332 20.000000000000007
    vertex 7.103557203255773 18.995168249481036 -2.8199664825478975e-15
    vertex 7.103557203255773 18.995168249481036 20.000000000000007
  endloop
endfacet
facet normal -0.9659258262890683 0.2588190451025205 0.0
  outer loop
    vertex 7.103557203255773 18.995168249481036 -2.8199664825478975e-15
    vertex 8.153804694765979 21.53068998733332 20.000000000000007
    vertex 8.153804694765979 21.53068998733332 -2.8199664825478975e-15
  endloop
endfacet
facet normal -0.9659258262890683 0.2588190451025205 0.0
  outer loop
    vertex 7.103557203255773 18.995168249481036 20.000000000000007
    vertex 6.74533734223836 16.27421826689824 -2.8199664825478975e-15
    vertex 6.74533734223836 16.27421826689824 20.000000000000007
  endloop
endfacet
facet normal -1.0 -1.6485553306946786e-15 0.0
  outer loop
    vertex 6.74533734223836 16.27421826689824 -2.8199664825478975e-15
    vertex 7.103557203255773 18.995168249481036 20.000000000000007
    vertex 7.103557203255773 18.995168249481036 -2.8199664825478975e-15
  endloop
endfacet
facet normal -1.0 -1.6485553306946786e-15 0.0
  outer loop
    vertex 6.74533734223836 16.27421826689824 20.000000000000007
    vertex 7.103557203255795 13.553268284315346 -2.8199664825478975e-15
    vertex 7.103557203255795 13.553268284315346 20.000000000000007
  endloop
endfacet
facet normal -0.9659258262890681 -0.2588190451025217 0.0
  outer loop
    vertex 7.103557203255795 13.553268284315346 -2.8199664825478975e-15
    vertex 6.74533734223836 16.27421826689824 20.000000000000007
    vertex 6.74533734223836 16.27421826689824 -2.8199664825478975e-15
  endloop
endfacet
facet normal -0.9659258262890681 -0.2588190451025217 0.0
  outer loop
    vertex 7.103557203255795 13.553268284315346 20.000000000000007
    vertex 8.153804694766002 11.017746546463055 -2.8199664825478975e-15
    vertex 8.153804694766002 11.017746546463055 20.000000000000007
  endloop
endfacet
facet normal -0.8660254037844386 -0.5000000000000002 0.0
  outer loop
    vertex 8.153804694766002 11.017746546463055 -2.8199664825478975e-15
    vertex 7.103557203255795 13.553268284315346 20.000000000000007
    vertex 7.103557203255795 13.553268284315346 -2.8199664825478975e-15
  endloop
endfacet
facet normal -0.8660254037844386 -0.5000000000000002 0.0
  outer loop
    vertex 8.153804694766002 11.017746546463055 20.000000000000007
    vertex 9.824507185838623 8.840444669628228 -2.8199664825478975e-15
    vertex 9.824507185838623 8.840444669628228 20.000000000000007
  endloop
endfacet
facet normal -0.7071067811865468 -0.7071067811865485 0.0
  outer loop
    vertex 9.824507185838623 8.840444669628228 -2.8199664825478975e-15
    vertex 8.153804694766002 11.017746546463055 20.000000000000007
    vertex 8.153804694766002 11.017746546463055 -2.8199664825478975e-15
  endloop
endfacet
facet normal 0.9659258262890675 0.25881904510252335 0.0
  outer loop
    vertex 27.413004362961388 18.99516824948108 -2.8199664825478975e-15
    vertex 27.771224223978823 16.274218266898174 20.000000000000007
    vertex 27.771224223978823 16.274218266898174 -2.8199664825478975e-15
  endloop
endfacet
facet normal 1.0 5.738754772796608e-15 0.0
  outer loop
    vertex 27.771224223978823 16.274218266898174 20.000000000000007
    vertex 27.413004362961388 18.99516824948108 -2.8199664825478975e-15
    vertex 27.413004362961388 18.99516824948108 20.000000000000007
  endloop
endfacet
facet normal -0.5000000000000007 -0.8660254037844382 0.0
  outer loop
    vertex 12.00180906267346 7.169742178555606 20.000000000000007
    vertex 9.824507185838623 8.840444669628228 -2.8199664825478975e-15
    vertex 12.00180906267346 7.169742178555606 -2.8199664825478975e-15
  endloop
endfacet
facet normal -0.7071067811865468 -0.7071067811865485 0.0
  outer loop
    vertex 9.824507185838623 8.840444669628228 -2.8199664825478975e-15
    vertex 12.00180906267346 7.169742178555606 20.000000000000007
    vertex 9.824507185838623 8.840444669628228 20.000000000000007
  endloop
endfacet
facet normal -0.2588190451025189 -0.9659258262890689 0.0
  outer loop
    vertex 14.537330800525782 6.1194946870453775 20.000000000000007
    vertex 12.00180906267346 7.169742178555606 -2.8199664825478975e-15
    vertex 14.537330800525782 6.1194946870453775 -2.8199664825478975e-15
  endloop
endfacet
facet normal -0.5000000000000007 -0.8660254037844382 0.0
  outer loop
    vertex 12.00180906267346 7.169742178555606 -2.8199664825478975e-15
    vertex 14.537330800525782 6.1194946870453775 20.000000000000007
    vertex 12.00180906267346 7.169742178555606 20.000000000000007
  endloop
endfacet
facet normal 1.0782442973732752e-15 -1.0 0.0
  outer loop
    vertex 17.25828078310862 5.761274826027975 20.000000000000007
    vertex 14.537330800525782 6.1194946870453775 -2.8199664825478975e-15
    vertex 17.25828078310862 5.761274826027975 -2.8199664825478975e-15
  endloop
endfacet
facet normal -0.2588190451025189 -0.9659258262890689 0.0
  outer loop
    vertex 14.537330800525782 6.1194946870453775 -2.8199664825478975e-15
    vertex 17.25828078310862 5.761274826027975 20.000000000000007
    vertex 14.537330800525782 6.1194946870453775 20.000000000000007
  endloop
endfacet
facet normal 0.5000000000000028 -0.8660254037844372 0.0
  outer loop
    vertex 22.514752503543733 7.169742178555606 20.000000000000007
    vertex 19.979230765691415 6.1194946870453775 -2.8199664825478975e-15
    vertex 22.514752503543733 7.169742178555606 -2.8199664825478975e-15
  endloop
endfacet
facet normal 0.2588190451025199 -0.9659258262890686 0.0
  outer loop
    vertex 19.979230765691415 6.1194946870453775 -2.8199664825478975e-15
    vertex 22.514752503543733 7.169742178555606 20.000000000000007
    vertex 19.979230765691415 6.1194946870453775 20.000000000000007
  endloop
endfacet
facet normal 0.2588190451025199 -0.9659258262890686 0.0
  outer loop
    vertex 19.979230765691415 6.1194946870453775 20.000000000000007
    vertex 17.25828078310862 5.761274826027975 -2.8199664825478975e-15
    vertex 19.979230765691415 6.1194946870453775 -2.8199664825478975e-15
  endloop
endfacet
facet normal 1.0782442973732752e-15 -1.0 0.0
  outer loop
    vertex 17.25828078310862 5.761274826027975 -2.8199664825478975e-15
    vertex 19.979230765691415 6.1194946870453775 20.000000000000007
    vertex 17.25828078310862 5.761274826027975 20.000000000000007
  endloop
endfacet
facet normal 0.8660254037844399 0.49999999999999767 0.0
  outer loop
    vertex 26.362756871451182 21.530689987333343 -2.8199664825478975e-15
    vertex 27.413004362961388 18.99516824948108 20.000000000000007
    vertex 27.413004362961388 18.99516824948108 -2.8199664825478975e-15
  endloop
endfacet
facet normal 0.9659258262890675 0.25881904510252335 0.0
  outer loop
    vertex 27.413004362961388 18.99516824948108 20.000000000000007
    vertex 26.362756871451182 21.530689987333343 -2.8199664825478975e-15
    vertex 26.362756871451182 21.530689987333343 20.000000000000007
  endloop
endfacet
facet normal 0.7071067811865523 0.7071067811865428 0.0
  outer loop
    vertex 24.692054380378593 23.70799186416817 -2.8199664825478975e-15
    vertex 26.362756871451182 21.530689987333343 20.000000000000007
    vertex 26.362756871451182 21.530689987333343 -2.8199664825478975e-15
  endloop
endfacet
facet normal 0.8660254037844399 0.49999999999999767 0.0
  outer loop
    vertex 26.362756871451182 21.530689987333343 20.000000000000007
    vertex 24.692054380378593 23.70799186416817 -2.8199664825478975e-15
    vertex 24.692054380378593 23.70799186416817 20.000000000000007
  endloop
endfacet
facet normal 0.7071067811865478 -0.7071067811865475 0.0
  outer loop
    vertex 24.692054380378593 8.840444669628262 20.000000000000007
    vertex 22.514752503543733 7.169742178555606 -2.8199664825478975e-15
    vertex 24.692054380378593 8.840444669628262 -2.8199664825478975e-15
  endloop
endfacet
facet normal 0.5000000000000028 -0.8660254037844372 0.0
  outer loop
    vertex 22.514752503543733 7.169742178555606 -2.8199664825478975e-15
    vertex 24.692054380378593 8.840444669628262 20.000000000000007
    vertex 22.514752503543733 7.169742178555606 20.000000000000007
  endloop
endfacet
endsolid Untitled-5367fc29
